<?xml version="1.0" encoding="UTF-8"?>
<svg width="33px" height="33px" viewBox="0 0 33 33" version="1.1" xmlns="http://www.w3.org/2000/svg" xmlns:xlink="http://www.w3.org/1999/xlink">
    <!-- Generator: Sketch 52.2 (67145) - http://www.bohemiancoding.com/sketch -->
    <title>friday</title>
    <desc>Created with Sketch.</desc>
    <g id="Page-1" stroke="none" stroke-width="1" fill="none" fill-rule="evenodd">
        <g id="friday" fill="#FF7A5C">
            <path d="M29.375,1.25 L28.252,1.25 C28.281,1.157 28.311,1.064 28.311,0.961 C28.311,0.431 27.879,1.11022302e-16 27.348,1.11022302e-16 C26.817,1.11022302e-16 26.387,0.431 26.387,0.961 C26.387,1.064 26.415,1.157 26.446,1.25 L22.766,1.25 C22.795,1.157 22.825,1.064 22.825,0.961 C22.823,0.431 22.393,0 21.861,0 C21.331,0 20.9,0.431 20.9,0.961 C20.9,1.064 20.929,1.157 20.959,1.25 L17.277,1.25 C17.306,1.157 17.336,1.064 17.336,0.961 C17.336,0.431 16.906,1.11022302e-16 16.375,1.11022302e-16 C15.844,1.11022302e-16 15.414,0.431 15.414,0.961 C15.414,1.064 15.442,1.157 15.472,1.25 L11.791,1.25 C11.82,1.157 11.85,1.064 11.85,0.961 C11.85,0.431 11.419,0 10.889,0 C10.358,0 9.927,0.431 9.927,0.961 C9.927,1.064 9.955,1.157 9.985,1.25 L6.305,1.25 C6.335,1.157 6.364,1.064 6.364,0.961 C6.364,0.43 5.934,0 5.403,0 C4.872,0 4.441,0.431 4.441,0.961 C4.441,1.064 4.469,1.157 4.499,1.25 L3.375,1.25 C1.857,1.25 0.625,2.483 0.625,4 L0.625,30 C0.625,31.518 1.857,32.75 3.375,32.75 L26.27,32.75 L32.125,26.895 L32.125,4 C32.125,2.483 30.893,1.25 29.375,1.25 Z M30.625,26.273 L30.314,26.584 L27.959,26.584 C26.857,26.584 25.959,27.484 25.959,28.584 L25.959,30.939 L25.648,31.25 L3.375,31.25 C2.686,31.25 2.125,30.689 2.125,30 L2.125,9 L30.625,9 L30.625,26.273 Z" id="Shape" fill-rule="nonzero"></path>
            <polygon id="Path" points="10.248 21.029 13.087 21.029 13.087 19.18 10.248 19.18 10.248 17.739 13.813 17.739 13.813 15.891 7.652 15.891 7.652 23.812 10.248 23.812"></polygon>
            <path d="M16.893,21.051 L17.686,21.051 C18.895,21.051 19.071,21.393 19.071,22.426 C19.071,23.13 19.137,23.636 19.205,23.813 L21.834,23.813 L21.834,23.57 C21.524,23.57 21.56,23.217 21.56,22.183 C21.56,20.588 21.053,20.39 20.217,20.082 C21.142,19.829 21.549,19.06 21.549,18.145 C21.549,16.604 20.681,15.89 18.039,15.89 L14.298,15.89 L14.298,23.811 L16.896,23.811 L16.896,21.049 L16.893,21.049 L16.893,21.051 Z M16.893,17.739 L18.104,17.739 C18.708,17.739 19.149,18.003 19.149,18.564 C19.149,19.114 18.719,19.312 17.918,19.312 L16.896,19.312 L16.896,17.739 L16.893,17.739 Z" id="Shape" fill-rule="nonzero"></path>
            <rect id="Rectangle" x="22.469" y="15.891" width="2.598" height="7.921"></rect>
        </g>
    </g>
</svg>