<?xml version="1.0" encoding="UTF-8"?>
<svg width="33px" height="33px" viewBox="0 0 33 33" version="1.1" xmlns="http://www.w3.org/2000/svg" xmlns:xlink="http://www.w3.org/1999/xlink">
    <!-- Generator: Sketch 52.2 (67145) - http://www.bohemiancoding.com/sketch -->
    <title>monday</title>
    <desc>Created with Sketch.</desc>
    <g id="Page-1" stroke="none" stroke-width="1" fill="none" fill-rule="evenodd">
        <g id="monday" fill="#FF7A5C">
            <path d="M29.375,1.25 L28.251,1.25 C28.279,1.157 28.309,1.064 28.309,0.961 C28.311,0.431 27.879,0 27.348,0 C26.817,0 26.387,0.431 26.387,0.961 C26.387,1.064 26.415,1.157 26.446,1.25 L22.766,1.25 C22.795,1.157 22.824,1.064 22.824,0.961 C22.823,0.43 22.393,0 21.861,0 C21.331,0 20.9,0.431 20.9,0.961 C20.9,1.064 20.929,1.157 20.959,1.25 L17.279,1.25 C17.308,1.157 17.337,1.064 17.337,0.961 C17.336,0.431 16.906,0 16.375,0 C15.844,0 15.414,0.431 15.414,0.961 C15.414,1.064 15.443,1.157 15.472,1.25 L11.792,1.25 C11.821,1.157 11.85,1.064 11.85,0.961 C11.85,0.431 11.419,0 10.888,0 C10.357,0 9.927,0.431 9.927,0.961 C9.927,1.064 9.955,1.157 9.985,1.25 L6.305,1.25 C6.335,1.157 6.363,1.064 6.363,0.961 C6.363,0.43 5.933,0 5.402,0 C4.871,0 4.441,0.431 4.441,0.961 C4.441,1.064 4.47,1.157 4.499,1.25 L3.375,1.25 C1.858,1.25 0.625,2.483 0.625,4 L0.625,30 C0.625,31.518 1.858,32.75 3.375,32.75 L26.27,32.75 L32.125,26.895 L32.125,4 C32.125,2.483 30.893,1.25 29.375,1.25 Z M30.625,26.273 L30.314,26.584 L27.958,26.584 C26.857,26.584 25.958,27.484 25.958,28.584 L25.958,30.939 L25.648,31.25 L3.375,31.25 C2.686,31.25 2.125,30.689 2.125,30 L2.125,9 L30.625,9 L30.625,26.273 Z" id="Shape" fill-rule="nonzero"></path>
            <polygon id="Path" points="5.563 21.127 5.508 19.896 5.398 18.729 5.42 18.729 6.861 23.812 8.665 23.812 10.106 18.729 10.128 18.729 9.997 20.16 9.963 21.393 9.963 23.812 12.296 23.812 12.296 15.891 9.16 15.891 7.763 20.831 6.366 15.891 3.23 15.891 3.23 23.812 5.563 23.812"></polygon>
            <path d="M16.98,24.021 C19.324,24.021 21.14,22.502 21.14,19.808 C21.14,17.717 19.808,15.682 16.98,15.682 C14.517,15.682 12.834,17.3 12.834,19.786 C12.833,22.48 14.495,24.021 16.98,24.021 Z M16.959,17.618 C18.104,17.585 18.543,18.728 18.543,19.806 C18.543,21.116 18.104,22.083 16.981,22.083 C15.738,22.083 15.431,20.817 15.431,19.806 C15.43,18.807 15.782,17.618 16.959,17.618 Z" id="Shape" fill-rule="nonzero"></path>
            <polygon id="Path" points="24.264 21.305 24.164 19.5 26.991 23.812 29.422 23.812 29.422 15.891 26.936 15.891 26.936 18.41 27.035 20.214 24.208 15.891 21.775 15.891 21.775 23.812 24.264 23.812"></polygon>
        </g>
    </g>
</svg>