<?xml version="1.0" encoding="utf-8"?>
<!-- Generator: Adobe Illustrator 23.0.0, SVG Export Plug-In . SVG Version: 6.00 Build 0)  -->
<svg version="1.1" id="Layer_1" xmlns="http://www.w3.org/2000/svg" xmlns:xlink="http://www.w3.org/1999/xlink" x="0px" y="0px"
	 viewBox="0 0 33 33" style="enable-background:new 0 0 33 33;" xml:space="preserve">
<style type="text/css">
	.st0{fill:#FF7A5C;}
</style>
<title>friday</title>
<desc>Created with Sketch.</desc>
<g id="Page-1">
	<g id="friday">
		<path id="Shape" class="st0" d="M29.4,1.2h-1.1c0-0.1,0.1-0.2,0.1-0.3c0-0.5-0.4-1-1-1s-1,0.4-1,1c0,0.1,0,0.2,0.1,0.3h-3.7
			c0-0.1,0.1-0.2,0.1-0.3c0-0.5-0.4-1-1-1c-0.5,0-1,0.4-1,1c0,0.1,0,0.2,0.1,0.3h-3.7c0-0.1,0.1-0.2,0.1-0.3c0-0.5-0.4-1-1-1
			s-1,0.4-1,1c0,0.1,0,0.2,0.1,0.3h-3.7c0-0.1,0.1-0.2,0.1-0.3c0-0.5-0.4-1-1-1c-0.5,0-1,0.4-1,1c0,0.1,0,0.2,0.1,0.3H6.3
			c0-0.1,0.1-0.2,0.1-0.3c0-0.5-0.4-1-1-1s-1,0.4-1,1c0,0.1,0,0.2,0.1,0.3H3.4C1.9,1.2,0.6,2.5,0.6,4v26c0,1.5,1.2,2.8,2.8,2.8h22.9
			l5.9-5.9V4C32.1,2.5,30.9,1.2,29.4,1.2z M30.6,26.3l-0.3,0.3H28c-1.1,0-2,0.9-2,2v2.4l-0.3,0.3H3.4c-0.7,0-1.2-0.6-1.2-1.2V9h28.5
			V26.3z"/>
		<g>
			<path class="st0" d="M10.1,22.2h-3l-0.4,1.4H4L7.2,15h2.9l3.2,8.6h-2.8L10.1,22.2z M9.6,20.3l-0.9-3.1l-0.9,3.1H9.6z"/>
			<path class="st0" d="M14.2,15h2.7v6.5H21v2.1h-6.8V15z"/>
			<path class="st0" d="M22.2,15h2.7v6.5H29v2.1h-6.8V15z"/>
		</g>
	</g>
</g>
</svg>
