<svg viewBox="0 -31 512 512" xmlns="http://www.w3.org/2000/svg"><path d="m256 0c-24.902344 0-45 20.097656-45 45 0 24.898438 20.097656 45 45 45s45-20.101562 45-45c0-24.902344-20.097656-45-45-45zm0 0" fill="#ddb100"/><path d="m256 90v-90c24.902344 0 45 20.097656 45 45 0 24.898438-20.097656 45-45 45zm0 0" fill="#dc9e00"/><path d="m330.097656 430.199219h-148.195312l33.296875-100.199219h81.601562zm0 0" fill="#ff4b00"/><path d="m296.800781 330 33.296875 100.199219h-74.097656v-100.199219zm0 0" fill="#d03b00"/><path d="m481 285h-450c0-124.199219 100.800781-225 225-225s225 100.800781 225 225zm0 0" fill="#ffcd00"/><path d="m256 285v-225c124.199219 0 225 100.800781 225 225zm0 0" fill="#eebf00"/><path d="m479.5 291.597656-34.199219 68.402344h-378.601562l-34.199219-68.402344zm0 0" fill="#ff9f00"/><path d="m151 420h210v30h-210zm0 0" fill="#ff9f00"/><path d="m256 420h105v30h-105zm0 0" fill="#ff7816"/><path d="m256 291.597656h223.5l-34.199219 68.402344h-189.300781zm0 0" fill="#ff7816"/><path d="m0 270h512v30h-512zm0 0" fill="#e2e2e7"/><path d="m256 270h256v30h-256zm0 0" fill="#d3d3d8"/></svg>