<svg height="512pt" viewBox="-18 0 511 512" width="512pt" xmlns="http://www.w3.org/2000/svg"><g fill="#d2d2d7"><path d="m237.851562 512c-4.222656 0-7.648437-3.421875-7.648437-7.648438v-96.941406c0-4.222656 3.425781-7.648437 7.648437-7.648437 4.226563 0 7.648438 3.425781 7.648438 7.648437v96.941406c0 4.226563-3.421875 7.648438-7.648438 7.648438zm0 0"/><path d="m151.113281 512c-4.222656 0-7.648437-3.421875-7.648437-7.648438v-96.941406c0-4.222656 3.425781-7.648437 7.648437-7.648437 4.226563 0 7.648438 3.425781 7.648438 7.648437v96.941406c0 4.226563-3.421875 7.648438-7.648438 7.648438zm0 0"/><path d="m324.589844 512c-4.226563 0-7.648438-3.421875-7.648438-7.648438v-96.941406c0-4.222656 3.421875-7.648437 7.648438-7.648437 4.226562 0 7.648437 3.425781 7.648437 7.648437v96.941406c0 4.226563-3.421875 7.648438-7.648437 7.648438zm0 0"/></g><path d="m217.4375 407.410156h40.832031c9.398438 0 14.582031-11.894531 8.632813-19.828125l-29.050782-38.753906-29.050781 38.753906c-5.949219 7.933594-.765625 19.828125 8.636719 19.828125zm0 0" fill="#2476ed"/><path d="m130.699219 407.410156h40.832031c9.398438 0 14.582031-11.894531 8.632812-19.828125l-29.050781-38.753906-29.050781 38.753906c-5.949219 7.933594-.769531 19.828125 8.636719 19.828125zm0 0" fill="#d63030"/><path d="m304.175781 407.410156h40.832031c9.398438 0 14.582032-11.894531 8.632813-19.828125l-29.050781-38.753906-29.050782 38.753906c-5.949218 7.933594-.765624 19.828125 8.636719 19.828125zm0 0" fill="#d63030"/><path d="m301.726562 176.425781c0-97.4375-67.429687-176.425781-150.613281-176.425781-83.179687 0-150.613281 78.988281-150.613281 176.425781s67.433594 176.425781 150.613281 176.425781c83.183594 0 150.613281-78.988281 150.613281-176.425781zm0 0" fill="#fb5858"/><path d="m475.203125 176.425781c0-97.4375-67.429687-176.425781-150.613281-176.425781s-150.613282 78.988281-150.613282 176.425781 67.429688 176.425781 150.613282 176.425781 150.613281-78.988281 150.613281-176.425781zm0 0" fill="#fb5858"/><path d="m388.464844 176.429688c0 88.582031-55.742188 161.925781-128.382813 174.519531-7.25 1.253906-14.675781 1.90625-22.230469 1.90625-83.1875 0-150.613281-78.992188-150.613281-176.425781 0-97.441407 67.425781-176.42578175 150.613281-176.42578175 7.554688 0 14.980469.65234375 22.230469 1.90624975 72.644531 12.59375 128.382813 85.929688 128.382813 174.519532zm0 0" fill="#2476ed"/><path d="m388.464844 176.429688c0 88.582031-55.742188 161.925781-128.382813 174.519531-72.640625-12.585938-128.390625-85.929688-128.390625-174.519531 0-88.601563 55.75-161.933594 128.390625-174.519532 72.644531 12.59375 128.382813 85.929688 128.382813 174.519532zm0 0" fill="#5596fb"/><path d="m159.03125 155.945312v-32.765624c0-19.925782 12.839844-27.234376 29.890625-27.234376 16.824219 0 29.890625 7.308594 29.890625 27.234376v32.765624c0 19.925782-13.066406 27.234376-29.890625 27.234376-17.050781 0-29.890625-7.308594-29.890625-27.234376zm43.839844-32.765624c0-9.078126-5.3125-13.0625-13.949219-13.0625-8.632813 0-13.726563 3.984374-13.726563 13.0625v32.765624c0 9.078126 5.09375 13.0625 13.726563 13.0625 8.636719 0 13.949219-3.984374 13.949219-13.0625zm84.574218-27.457032c0 1.332032-.21875 2.4375-.664062 3.542969l-81.253906 162.070313c-1.328125 2.65625-4.425782 4.203124-7.527344 4.203124-5.09375 0-8.636719-4.203124-8.636719-8.191406 0-1.105468.222657-2.214844.886719-3.320312l81.257812-162.730469c1.328126-2.878906 3.984376-3.988281 6.640626-3.988281 4.425781.003906 9.296874 3.324218 9.296874 8.414062zm-30.554687 135.5v-32.765625c0-19.925781 12.84375-27.234375 29.890625-27.234375 16.828125 0 29.890625 7.308594 29.890625 27.234375v32.765625c0 19.925782-13.0625 27.234375-29.890625 27.234375-17.046875 0-29.890625-7.308593-29.890625-27.234375zm43.839844-32.765625c0-9.078125-5.3125-13.0625-13.949219-13.0625-8.632812 0-13.726562 3.984375-13.726562 13.0625v32.765625c0 9.078125 5.09375 13.0625 13.726562 13.0625 8.636719 0 13.949219-3.984375 13.949219-13.0625zm0 0" fill="#0a4499"/></svg>