<svg height="511pt" viewBox="0 -41 511.99973 511" width="511pt" xmlns="http://www.w3.org/2000/svg" xmlns:xlink="http://www.w3.org/1999/xlink"><linearGradient id="a"><stop offset="0" stop-color="#f2e9dc"/><stop offset=".2282" stop-color="#f0e4d7"/><stop offset=".5158" stop-color="#ead7c7"/><stop offset=".8338" stop-color="#e0c2ad"/><stop offset="1" stop-color="#dab49d"/></linearGradient><linearGradient id="b" gradientUnits="userSpaceOnUse" x1="187.0245446758" x2="262.0968279138" xlink:href="#a" y1="321.3987398966" y2="468.6994965232"/><linearGradient id="c" gradientUnits="userSpaceOnUse" x1="226.1516014882" x2="231.2583519178" xlink:href="#a" y1="326.333719272" y2="406.509439997"/><linearGradient id="d" gradientUnits="userSpaceOnUse" x1="213.4048038542" x2="257.085349682" xlink:href="#a" y1="317.1502423848" y2="468.2850775216"/><linearGradient id="e" gradientUnits="userSpaceOnUse" x1="342.7232092246" x2="25.6334416026" xlink:href="#a" y1="370.161440065" y2="370.161440065"/><linearGradient id="f"><stop offset="0" stop-color="#dab49d" stop-opacity="0"/><stop offset=".4385" stop-color="#ce9e7a" stop-opacity=".439216"/><stop offset="1" stop-color="#c08552"/></linearGradient><linearGradient id="g" gradientUnits="userSpaceOnUse" x1="283.092953014" x2="294.6150662002" xlink:href="#f" y1="410.1870070674" y2="284.7741594536"/><linearGradient id="h" gradientUnits="userSpaceOnUse" x1="266.038326078" x2="224.3928305364" xlink:href="#f" y1="416.8886883784" y2="315.5147530546"/><linearGradient id="i" gradientUnits="userSpaceOnUse" x1="219.5166809902" x2="236.3176168368" xlink:href="#a" y1="343.024926444" y2="383.734967466"/><radialGradient id="j" cx="399.9106220326" cy="200.1017716984" gradientUnits="userSpaceOnUse" r="112.7433519738"><stop offset="0" stop-color="#f2e9dc"/><stop offset=".3418" stop-color="#f1e7d9"/><stop offset=".5588" stop-color="#eee0d1"/><stop offset=".7411" stop-color="#e8d3c2"/><stop offset=".9032" stop-color="#e0c2ad"/><stop offset="1" stop-color="#dab49d"/></radialGradient><linearGradient id="k" gradientUnits="userSpaceOnUse" x1="441.009381653" x2="397.7024955936" xlink:href="#f" y1="221.3158482648" y2="195.4165681166"/><linearGradient id="l" gradientUnits="userSpaceOnUse" x1="407.079327858" x2="373.8616571142" xlink:href="#f" y1="300.214680598" y2="280.3491724542"/><linearGradient id="m" gradientUnits="userSpaceOnUse" x1="125.578595136" x2="367.7706615558" xlink:href="#a" y1="151.0824690668" y2="304.416596129"/><linearGradient id="n" gradientUnits="userSpaceOnUse" x1="128.010596181" x2="339.3182069772" xlink:href="#a" y1="84.821709615" y2="218.6026486676"/><linearGradient id="o" gradientUnits="userSpaceOnUse" x1="229.2678757684" x2="229.2678757684" xlink:href="#f" y1="269.603090974" y2="57.822733308"/><linearGradient id="p" gradientUnits="userSpaceOnUse" x1="229.2677753762" x2="229.2677753762" y1="218.4956305824" y2="119.6981606794"><stop offset="0" stop-color="#c08552"/><stop offset="1" stop-color="#895738"/></linearGradient><linearGradient id="q"><stop offset="0" stop-color="#ffb211"/><stop offset=".1645" stop-color="#ffac14"/><stop offset=".3888" stop-color="#ff9a1b"/><stop offset=".6475" stop-color="#ff7e28"/><stop offset=".9301" stop-color="#ff5639"/><stop offset="1" stop-color="#ff4b3e"/></linearGradient><linearGradient id="r" gradientUnits="userSpaceOnUse" x1="125.7983536618" x2="341.405762384" xlink:href="#q" y1="126.1231610872" y2="262.626335035"/><linearGradient id="s" gradientUnits="userSpaceOnUse" x1="127.0085816328" x2="338.7085251466" xlink:href="#q" y1="157.1837046296" y2="291.2129135928"/><linearGradient id="t"><stop offset="0" stop-color="#fff" stop-opacity=".501961"/><stop offset=".1617" stop-color="#f4eae1" stop-opacity=".580392"/><stop offset=".741" stop-color="#cfa27b" stop-opacity=".870588"/><stop offset="1" stop-color="#c08552"/></linearGradient><linearGradient id="u" gradientUnits="userSpaceOnUse" x1="222.2420280436" x2="202.1364821496" xlink:href="#t" y1="117.756876708" y2="-112.3412425544"/><linearGradient id="v" gradientUnits="userSpaceOnUse" x1="295.0301879472" x2="306.4907607148" xlink:href="#t" y1="122.8209604526" y2="12.2007027244"/><path d="m352.527344 404.285156c0-13.621094-55.183594-24.660156-123.261719-24.660156-68.074219 0-123.257813 11.039062-123.257813 24.660156s55.183594 24.660156 123.257813 24.660156c68.078125 0 123.261719-11.039062 123.261719-24.660156zm0 0" fill="url(#b)"/><path d="m458.535156 375.257812c0-22.839843-102.648437-41.359374-229.269531-41.359374-126.617187 0-229.265625 18.519531-229.265625 41.359374 0 22.84375 102.648438 41.359376 229.265625 41.359376 126.621094 0 229.269531-18.515626 229.269531-41.359376zm0 0" fill="url(#c)"/><path d="m453.945312 372.035156c0-21.0625-100.589843-38.136718-224.679687-38.136718-124.085937 0-224.675781 17.074218-224.675781 38.136718s100.589844 38.136719 224.675781 38.136719c124.089844 0 224.679687-17.074219 224.679687-38.136719zm0 0" fill="url(#d)"/><path d="m388.71875 370.160156c0-13.621094-71.386719-24.660156-159.453125-24.660156-88.0625 0-159.449219 11.039062-159.449219 24.660156s71.386719 24.660156 159.449219 24.660156c88.066406 0 159.453125-11.039062 159.453125-24.660156zm0 0" fill="url(#e)"/><path d="m117.371094 338.957031 89.578125 89.582031c7.242187.265626 14.695312.40625 22.316406.40625 57.171875 0 105.246094-7.785156 119.179687-18.347656 66.011719-7.261718 110.089844-20.371094 110.089844-35.339844 0-5.234374-5.40625-10.242187-15.246094-14.851562-28.976562-15.375-113.835937-26.507812-214.023437-26.507812-40.742187 0-78.949219 1.84375-111.894531 5.058593zm0 0" fill="url(#g)"/><path d="m334.234375 417.210938-55.6875-55.683594c-6.289063-7.476563-25.964844-12.933594-49.28125-12.933594-28.382813 0-51.390625 8.085938-51.390625 18.058594 0 2.425781 1.371094 4.738281 3.839844 6.851562l55.386718 55.386719c41.09375-.515625 76.714844-5.054687 97.132813-11.679687zm0 0" fill="url(#h)"/><path d="m280.660156 366.652344c0-9.972656-23.007812-18.058594-51.394531-18.058594-28.382813 0-51.390625 8.085938-51.390625 18.058594 0 9.976562 23.007812 18.058594 51.390625 18.058594 28.386719 0 51.394531-8.082032 51.394531-18.058594zm0 0" fill="url(#i)"/><path d="m401.796875 321.132812c-.824219 0-1.648437-.042968-2.480469-.128906l-1.363281-.140625c-6.289063-.648437-11.949219-3.710937-15.9375-8.621093-3.988281-4.90625-5.828125-11.074219-5.179687-17.367188 1.359374-13.128906 10.878906-24.09375 23.691406-27.277344l66.191406-16.457031c13.082031-3.25 22.804688-14.445313 24.191406-27.855469l.9375-9.078125c1.824219-17.609375-11.023437-33.417969-28.632812-35.242187-8.535156-.886719-16.894532 1.609375-23.550782 7.019531s-10.808593 13.085937-11.691406 21.617187l-.773437 7.492188c-.539063 5.21875 3.265625 9.90625 8.488281 10.445312 2.527344.269532 5.007812-.476562 6.980469-2.078124 1.976562-1.605469 3.207031-3.878907 3.464843-6.410157.570313-5.484375 5.46875-9.46875 10.964844-8.90625 5.488282.566407 9.476563 5.476563 8.910156 10.960938-1.675781 16.179687-16.183593 27.984375-32.375 26.304687-7.835937-.808594-14.890624-4.625-19.859374-10.738281s-7.257813-13.796875-6.449219-21.632813l.777343-7.496093c1.429688-13.835938 8.164063-26.289063 18.960938-35.0625 10.800781-8.773438 24.367188-12.816407 38.207031-11.386719 28.566407 2.953125 49.402344 28.597656 46.453125 57.164062l-.941406 9.082032c-2.25 21.753906-18.019531 39.914062-39.246094 45.1875l-66.1875 16.453125c-4.671875 1.160156-8.144531 5.160156-8.640625 9.945312-.136719 1.328125.449219 2.273438.8125 2.71875.359375.441407 1.164063 1.210938 2.488281 1.347657l1.367188.140624c1.320312.136719 2.269531-.449218 2.710938-.808593.445312-.363281 1.210937-1.164063 1.347656-2.492188.566406-5.488281 5.480468-9.476562 10.964844-8.910156 5.484374.570313 9.472656 5.476563 8.90625 10.964844-.648438 6.289062-3.710938 11.953125-8.621094 15.941406-4.257813 3.464844-9.472656 5.304687-14.886719 5.304687zm0 0" fill="url(#j)"/><path d="m427.972656 207.601562c.621094-6.007812 2.871094-11.585937 6.464844-16.25l-14.199219-14.199218c-6.796875 7.957031-11.035156 17.761718-12.136719 28.394531l-.777343 7.492187c-.808594 7.835938 1.480469 15.519532 6.449219 21.636719 4.96875 6.113281 12.023437 9.925781 19.859374 10.738281 16.195313 1.675782 30.703126-10.128906 32.375-26.304687.566407-5.488281-3.421874-10.398437-8.910156-10.964844-5.496094-.558593-10.394531 3.421875-10.960937 8.910157-.261719 2.527343-1.492188 4.804687-3.464844 6.40625-1.976563 1.605468-4.457031 2.351562-6.984375 2.082031-5.21875-.539063-9.027344-5.226563-8.488281-10.445313zm0 0" fill="url(#k)"/><path d="m376.835938 294.875c-.648438 6.292969 1.191406 12.460938 5.179687 17.367188 3.988281 4.910156 9.648437 7.972656 15.9375 8.621093l1.363281.140625c.832032.085938 1.65625.128906 2.480469.128906 5.417969 0 10.628906-1.839843 14.890625-5.304687 4.90625-3.988281 7.96875-9.648437 8.617188-15.941406.570312-5.488281-3.421876-10.394531-8.90625-10.964844-5.484376-.566406-10.398438 3.425781-10.964844 8.910156-.136719 1.328125-.902344 2.128907-1.347656 2.492188-.441407.363281-1.390626.945312-2.710938.808593l-1.363281-.140624c-1.328125-.136719-2.132813-.902344-2.492188-1.347657-.363281-.445312-.949219-1.390625-.808593-2.714843.492187-4.789063 3.964843-8.785157 8.636718-9.945313l11.667969-2.902344-16.488281-16.488281c-12.8125 3.1875-22.332032 14.148438-23.691406 27.28125zm0 0" fill="url(#l)"/><path d="m229.265625 374.363281c105.226563 0 190.523437-85.296875 190.523437-190.519531v-34.914062c0-17.699219-85.300781-32.054688-190.523437-32.054688-105.21875 0-190.519531 14.355469-190.519531 32.054688v34.910156c0 105.226562 85.296875 190.523437 190.519531 190.523437zm0 0" fill="url(#m)"/><path d="m419.789062 148.925781c0-17.699219-85.296874-32.046875-190.523437-32.046875-105.222656 0-190.519531 14.347656-190.519531 32.046875s85.296875 32.050781 190.519531 32.050781c105.226563 0 190.523437-14.351562 190.523437-32.050781zm0 0" fill="url(#n)"/><path d="m401.972656 149.03125c0-13.683594-77.324218-24.777344-172.707031-24.777344-95.378906 0-172.703125 11.09375-172.703125 24.777344s77.324219 24.777344 172.703125 24.777344c95.382813 0 172.707031-11.09375 172.707031-24.777344zm0 0" fill="url(#o)"/><path d="m83.179688 162.25c30.597656 6.945312 84.585937 11.554688 146.085937 11.554688 61.503906 0 115.492187-4.613282 146.089844-11.554688-30.597657-6.945312-84.585938-11.5625-146.089844-11.5625-61.5 0-115.488281 4.617188-146.085937 11.5625zm0 0" fill="url(#p)"/><path d="m419.789062 183.410156v.429688c0 5.542968-.238281 11.035156-.707031 16.460937-27.507812 13.175781-102.105469 22.613281-189.816406 22.613281-87.707031 0-162.304687-9.4375-189.8125-22.613281-.46875-5.425781-.707031-10.917969-.707031-16.460937v-.429688c26.90625 13.34375 102.042968 22.953125 190.519531 22.953125 88.480469 0 163.617187-9.609375 190.523437-22.953125zm0 0" fill="url(#r)"/><path d="m417.40625 214.066406c-.980469 6.140625-2.25 12.195313-3.808594 18.128906-31.082031 11.925782-101.921875 20.257813-184.332031 20.257813-82.40625 0-153.242187-8.332031-184.328125-20.257813-1.558594-5.933593-2.828125-11.988281-3.804688-18.128906 28.765626 12.761719 102.152344 21.84375 188.132813 21.84375 85.984375 0 159.371094-9.082031 188.140625-21.84375zm0 0" fill="url(#s)"/><path d="m239.371094 164.402344c-.742188.410156-1.675782.183594-2.140625-.519532-3.765625-5.664062-7.464844-11.363281-11.203125-17.042968l-2.976563-4.585938-1.484375-2.296875c-.253906-.402343-.488281-.722656-.753906-1.1875l-.789062-1.382812c-2.078126-3.71875-3.160157-8.023438-3.332032-12.382813-.136718-4.367187.785156-8.8125 2.679688-12.878906.523437-.984375.984375-2.023438 1.625-2.953125l.882812-1.367187c.023438-.039063.050782-.074219.078125-.113282l.996094-1.289062c.667969-.921875 1.496094-1.707032 2.269531-2.546875.394532-.410157.835938-.769531 1.257813-1.15625l.644531-.566407.324219-.28125.265625-.222656 8.417968-6.976562 4.210938-3.488282 1.050781-.875.863281-.789062c.554688-.53125 1.140626-1.015625 1.671876-1.566406 8.679687-8.605469 12.386718-21.1875 10.328124-32.371094-.183593-1.386719-.589843-2.726562-.917968-4.070312-.011719-.046876-.027344-.09375-.042969-.140626-.476563-1.308593-.835937-2.644531-1.464844-3.886718-.28125-.613282-.535156-1.242188-.824219-1.847656-.019531-.046876-.042968-.089844-.070312-.132813l-.992188-1.753906-.464843-.835938c-.027344-.046875-.058594-.097656-.089844-.144531l-.550781-.78125-1.117188-1.644531c-.03125-.042969-.0625-.085938-.097656-.125l-1.273438-1.523438-.589843-.730469c-.035157-.046874-.074219-.089843-.117188-.128906l-.671875-.664062-1.378906-1.402344c-.035156-.039062-.074219-.074219-.117188-.109375l-1.511718-1.257813-.710938-.605468c-.042968-.035156-.085937-.070313-.132812-.101563l-.773438-.53125-1.597656-1.121093c-.042969-.027344-.085938-.054688-.128906-.078126l-1.695313-.96875c-.292969-.164062-.574219-.351562-.875-.496093l-.921875-.417969c-2.371094-1.214844-4.957031-1.902344-7.496094-2.46875-.046874-.007812-.097656-.015625-.148437-.023438-1.289063-.15625-2.546875-.425781-3.839844-.40625-.652343-.011718-1.296875-.085937-1.945312-.066406l-1.941407.105469c-.644531-.003906-1.285156.105469-1.917968.21875-.609375.101563-1.21875.171875-1.820313.277344-.050781.011719-.101562.019531-.152343.035156l-1.785157.460937-.925781.21875-1.320312.355469-5.289063 1.394531-2.644531.695313-.660156.171875c-.1875.054688-.257813.101562-.390626.148438l-.707031.269531c-3.742187 1.421875-6.828125 3.859375-9.128906 6.890625-1.144531 1.523437-2.089844 3.183594-2.792969 4.957031-.378906.878906-.625 1.804687-.871094 2.742187-.078124.476563-.257812.945313-.304687 1.433594l-.09375.734375-.058594.371094-.03125.183594c-.007812.070312-.011719.214843-.015625.320312l-.328125 5.457031-.089843 1.367188-.03125.417969-.03125.265625c-.085938.363281-.058594.714844-.097657 1.085937-.066406 1.460938.25 2.980469.871094 4.5 1.3125 2.984375 4.097656 5.777344 8.167969 6.839844 1.984375.535156 4.214844.699219 6.53125.257813 2.296875-.460938 4.671875-1.453126 6.828125-3.050782 2.183593-1.578125 4.035156-3.8125 5.464843-6.542968.175782-.351563.359376-.667969.535157-1.066407l.523437-1.304687 1.066406-2.609375c.585938-1.371094 1.164063-2.738281 1.785157-4.105469.296875-.648438.992187-1.023438 1.699219-.925781l.589843.082031c.707031.09375 1.277344.640625 1.386719 1.347656.234375 1.480469.425781 2.957032.621094 4.429688l.332031 2.800781.152344 1.398437c.03125.5.03125 1.070313.042969 1.613282.058593 4.398437-1.027344 9.042968-3.324219 13.210937-2.296875 4.15625-5.683594 7.882813-9.90625 10.65625-1.066407.664063-2.164063 1.324219-3.308594 1.886719l-1.761719.773438-.894531.378906-.917969.308594c-1.230468.410156-2.480468.8125-3.769531 1.050781-.644531.132812-1.289063.28125-1.941406.382812l-1.972657.199219c-10.53125 1.109375-22.023437-3.5625-29.289062-12.339844-3.632812-4.367187-6.308594-9.695312-7.554688-15.414062-.296874-1.433594-.566406-2.878906-.675781-4.335938l-.285156-3.40625-.386719-5.453125-.015625-.363281-.003906-.496094-.003906-.992187.015625-1.992188c.007812-1.328125.1875-2.65625.300781-3.988281.324219-2.648438.894531-5.28125 1.6875-7.847656 1.585937-5.125 4.097656-9.976563 7.382813-14.222656 3.273437-4.257813 7.324218-7.90625 11.867187-10.742188 4.546875-2.835938 9.59375-4.832031 14.765625-5.910156l1.945312-.359375.941407-.160157.679687-.078124 2.714844-.324219 5.433594-.640625 1.359375-.152344 1.777343-.164062 3.484376-.285157c.035156 0 .074218-.003906.109374-.003906 1.164063-.03125 2.335938-.003906 3.496094 0 1.179688.007813 2.359375.015625 3.53125.152344l3.511719.347656c1.164063.148437 2.3125.402344 3.464844.609375 2.3125.359375 4.535156 1.121094 6.777343 1.722656 1.109376.34375 2.183594.789063 3.273438 1.183594 1.085938.40625 2.164062.816406 3.203125 1.332031l3.121094 1.484375c1.019531.539063 2.003906 1.140625 2.996093 1.71875l1.484376.875c.484374.300782.945312.648438 1.417968.972656l2.75 1.960938c.03125.019531.0625.046875.09375.070312.875.707032 1.726563 1.445313 2.582032 2.167969l1.25 1.078125c.03125.027344.0625.054688.089843.082032l1.167969 1.167968 2.339844 2.394532c.03125.03125.0625.066406.089844.101562l2.132812 2.578125 1.03125 1.273437c.027344.03125.050781.066407.074219.101563l.929687 1.351563 1.863282 2.757812c.023437.039062.050781.078125.070312.121094l1.617188 2.90625.773437 1.433594c.019531.035156.039063.070312.054687.109374l.664063 1.488282 1.3125 3.046875c.015625.035156.027344.070312.039063.105469.382812 1.035156.707031 2.089843 1.054687 3.132812.75 2.085938 1.171875 4.273438 1.667969 6.421875.007812.035156.015625.070313.019531.105469.339844 2.191406.714844 4.363281.808594 6.570312.28125 4.429688.058593 8.878906-.769531 13.195313-.808594 4.308593-2.011719 8.542969-3.847657 12.484375-1.816406 3.945312-4.003906 7.699218-6.671875 11.070312-2.679687 3.359375-5.683594 6.425782-9.023437 9.050782-.828125.65625-1.71875 1.242187-2.574219 1.859374l-1.28125.890626-1.15625.730468-4.613281 2.933594-9.230469 5.859375-.285156.183594-.207032.140625-.421874.289062c-.277344.195313-.582032.363282-.84375.578125-.507813.449219-1.097657.828125-1.554688 1.339844l-.683594.664063c-.039062.039062-.078125.078124-.113281.121093l-.613281.730469c-.464844.488281-.796875 1.074219-1.203125 1.621094-.027344.039062-.058594.082031-.082031.121094-.707032 1.179687-1.378907 2.414062-1.820313 3.753906-.515625 1.339844-.804687 2.765625-1 4.214844-.292969 2.894531-.027344 5.945312 1.078125 8.785156l.417969 1.066406c.132812.351562.371093.808594.546875 1.207031l1.15625 2.480469 2.304687 4.957031c2.824219 6.183594 5.6875 12.347657 8.484375 18.546875.347656.765625.042969 1.675782-.695312 2.085938zm0 0" fill="url(#u)"/><path d="m262.148438 145.601562c-1.21875-5.789062-1.460938-11.886718-.847657-17.972656.113281-1.53125.414063-3.03125.640625-4.558594.335938-1.496093.609375-3.027343 1.027344-4.515624.417969-1.492188.816406-3.003907 1.359375-4.464844.257813-.734375.492187-1.488282.78125-2.214844l.894531-2.175781c2.449219-5.796875 5.890625-11.238281 10.054688-16.144531 1.015625-1.253907 2.179687-2.371094 3.285156-3.550782l3.113281-3.121094 1.546875-1.53125c.753906-.652343 1.511719-1.324218 2.308594-1.945312.835938-.570312 1.660156-1.179688 2.542969-1.691406.90625-.472656 1.785156-1.019532 2.742187-1.398438 3.773438-1.648437 7.933594-2.546875 12.171875-2.503906 1.0625-.023438 2.117188.121094 3.183594.203125 1.0625.125 2.113281.351563 3.175781.558594 1.039063.292969 2.09375.578125 3.113282.960937 1.003906.421875 2.054687.785156 3.015624 1.324219 3.925782 2.027344 7.359376 5.117187 9.761719 8.847656 2.433594 3.726563 3.851563 8.164063 4.070313 12.578125.230468 4.417969-.722656 8.792969-2.585938 12.613282-1.863281 3.816406-4.671875 7.085937-8.003906 9.359374-.808594.589844-1.722656 1.039063-2.574219 1.519532-.882812.4375-1.796875.800781-2.691406 1.140625-1.492187.433593-2.9375.761719-4.433594 1.109375-2.988281.640625-6.023437 1.207031-9.269531 1.425781l-1.03125-1.710937c1.707031-2.765626 3.625-5.1875 5.582031-7.535157.980469-1.152343 2.019531-2.308593 2.992188-3.382812.289062-.488281.609375-.886719.871093-1.328125.230469-.476563.488282-.890625.683594-1.335938.796875-1.777344 1.160156-3.515625 1.222656-5.144531.058594-1.628906-.148437-3.140625-.609374-4.46875-.457032-1.332031-1.042969-2.472656-1.742188-3.601563-.710938-1.132812-1.5-2.199218-2.511719-3.183593-1.941406-2.039063-5.402343-3.328125-8.703125-2.511719-.421875.0625-.796875.261719-1.214844.363281-.40625.140625-.777343.355469-1.191406.511719-.378906.214844-.75.449219-1.152344.664062l-1.753906 1.28125-3.480468 2.519532c-1.007813.785156-2.09375 1.503906-3.050782 2.367187l-1.5 1.238281-1.429687 1.328126c-.984375.863281-1.84375 1.839843-2.769531 2.777343-.90625.953125-1.734376 1.976563-2.601563 2.980469-.773437 1.0625-1.65625 2.078125-2.375 3.199219-6.1875 8.734375-9.863281 19.519531-10.628906 30.992187zm0 0" fill="url(#v)"/></svg>