<?xml version="1.0" encoding="UTF-8"?>
<svg width="33px" height="33px" viewBox="0 0 33 33" version="1.1" xmlns="http://www.w3.org/2000/svg" xmlns:xlink="http://www.w3.org/1999/xlink">
    <!-- Generator: Sketch 52.2 (67145) - http://www.bohemiancoding.com/sketch -->
    <title>sunday</title>
    <desc>Created with Sketch.</desc>
    <g id="Page-1" stroke="none" stroke-width="1" fill="none" fill-rule="evenodd">
        <g id="sunday" fill="#FF7A5C">
            <path d="M29.375,1.25 L28.251,1.25 C28.279,1.157 28.309,1.064 28.309,0.961 C28.311,0.431 27.879,0 27.348,0 C26.817,0 26.387,0.431 26.387,0.961 C26.387,1.064 26.415,1.157 26.446,1.25 L22.766,1.25 C22.795,1.157 22.824,1.064 22.824,0.961 C22.823,0.43 22.393,0 21.861,0 C21.331,0 20.9,0.431 20.9,0.961 C20.9,1.064 20.929,1.157 20.959,1.25 L17.279,1.25 C17.308,1.157 17.337,1.064 17.337,0.961 C17.336,0.431 16.906,0 16.375,0 C15.844,0 15.414,0.431 15.414,0.961 C15.414,1.064 15.443,1.157 15.472,1.25 L11.792,1.25 C11.821,1.157 11.85,1.064 11.85,0.961 C11.85,0.431 11.419,0 10.888,0 C10.357,0 9.927,0.431 9.927,0.961 C9.927,1.064 9.955,1.157 9.985,1.25 L6.305,1.25 C6.335,1.157 6.363,1.064 6.363,0.961 C6.363,0.43 5.933,0 5.402,0 C4.871,0 4.441,0.431 4.441,0.961 C4.441,1.064 4.47,1.157 4.499,1.25 L3.375,1.25 C1.858,1.25 0.625,2.483 0.625,4 L0.625,30 C0.625,31.518 1.858,32.75 3.375,32.75 L26.27,32.75 L32.125,26.895 L32.125,4 C32.125,2.483 30.893,1.25 29.375,1.25 Z M30.625,26.273 L30.314,26.584 L27.958,26.584 C26.857,26.584 25.958,27.484 25.958,28.584 L25.958,30.939 L25.648,31.25 L3.375,31.25 C2.686,31.25 2.125,30.689 2.125,30 L2.125,9 L30.625,9 L30.625,26.273 Z" id="Shape" fill-rule="nonzero"></path>
            <path d="M7.807,22.195 C7.554,22.195 7.279,22.129 7.07,21.997 C6.85,21.865 6.696,21.656 6.641,21.37 L4.155,21.37 C4.21,22.8 5.574,24.021 7.664,24.021 C9.842,24.021 11.372,23.129 11.372,21.292 C11.372,18.41 6.817,19.146 6.817,17.959 C6.817,17.673 7.07,17.508 7.642,17.508 C7.895,17.508 8.126,17.552 8.313,17.651 C8.5,17.751 8.643,17.916 8.687,18.192 L11.151,18.192 C10.964,16.806 9.963,15.683 7.763,15.683 C5.783,15.683 4.33,16.53 4.33,18.214 C4.33,21.239 8.885,20.414 8.885,21.612 C8.885,21.986 8.456,22.195 7.807,22.195 Z" id="Path"></path>
            <path d="M15.771,24.021 C18.4,24.021 19.577,22.91 19.577,20.369 L19.577,15.891 L16.98,15.891 L16.98,20.632 C16.98,21.49 16.706,22.085 15.771,22.085 C14.704,22.085 14.55,21.414 14.55,20.632 L14.55,15.891 L11.953,15.891 L11.953,20.357 C11.953,23.086 13.317,24.021 15.771,24.021 Z" id="Path"></path>
            <polygon id="Path" points="23.042 21.305 22.941 19.5 25.77 23.812 28.201 23.812 28.201 15.891 25.715 15.891 25.715 18.41 25.814 20.214 22.986 15.891 20.555 15.891 20.555 23.812 23.042 23.812"></polygon>
        </g>
    </g>
</svg>