<?xml version="1.0" encoding="UTF-8"?>
<svg width="33px" height="33px" viewBox="0 0 33 33" version="1.1" xmlns="http://www.w3.org/2000/svg" xmlns:xlink="http://www.w3.org/1999/xlink">
    <!-- Generator: Sketch 52.2 (67145) - http://www.bohemiancoding.com/sketch -->
    <title>wednesday</title>
    <desc>Created with Sketch.</desc>
    <g id="Page-1" stroke="none" stroke-width="1" fill="none" fill-rule="evenodd">
        <g id="wednesday" fill="#FF7A5C">
            <path d="M29.375,1.25 L28.252,1.25 C28.281,1.157 28.311,1.064 28.311,0.961 C28.311,0.431 27.879,1.11022302e-16 27.348,1.11022302e-16 C26.817,1.11022302e-16 26.387,0.431 26.387,0.961 C26.387,1.064 26.415,1.157 26.446,1.25 L22.766,1.25 C22.795,1.157 22.825,1.064 22.825,0.961 C22.823,0.431 22.393,0 21.861,0 C21.331,0 20.9,0.431 20.9,0.961 C20.9,1.064 20.929,1.157 20.959,1.25 L17.277,1.25 C17.306,1.157 17.336,1.064 17.336,0.961 C17.336,0.431 16.906,1.11022302e-16 16.375,1.11022302e-16 C15.844,1.11022302e-16 15.414,0.431 15.414,0.961 C15.414,1.064 15.442,1.157 15.472,1.25 L11.791,1.25 C11.82,1.157 11.85,1.064 11.85,0.961 C11.85,0.431 11.419,0 10.889,0 C10.358,0 9.927,0.431 9.927,0.961 C9.927,1.064 9.955,1.157 9.985,1.25 L6.305,1.25 C6.335,1.157 6.364,1.064 6.364,0.961 C6.364,0.43 5.934,0 5.403,0 C4.872,0 4.441,0.431 4.441,0.961 C4.441,1.064 4.469,1.157 4.499,1.25 L3.375,1.25 C1.857,1.25 0.625,2.483 0.625,4 L0.625,30 C0.625,31.518 1.857,32.75 3.375,32.75 L26.27,32.75 L32.125,26.895 L32.125,4 C32.125,2.483 30.893,1.25 29.375,1.25 Z M30.625,26.273 L30.314,26.584 L27.959,26.584 C26.857,26.584 25.959,27.484 25.959,28.584 L25.959,30.939 L25.648,31.25 L3.375,31.25 C2.686,31.25 2.125,30.689 2.125,30 L2.125,9 L30.625,9 L30.625,26.273 Z" id="Shape" fill-rule="nonzero"></path>
            <polygon id="Path" points="7.752 23.812 8.654 19.213 8.676 19.213 9.59 23.812 12.142 23.812 14.111 15.891 11.603 15.891 10.711 20.787 10.689 20.787 9.743 15.891 7.598 15.891 6.652 20.787 6.63 20.787 5.738 15.891 3.23 15.891 5.199 23.812"></polygon>
            <polygon id="Path" points="21.074 21.964 17.059 21.964 17.059 20.721 20.326 20.721 20.326 18.872 17.059 18.872 17.059 17.739 20.92 17.739 20.92 15.891 14.461 15.891 14.461 23.812 21.074 23.812"></polygon>
            <path d="M29.346,19.688 C29.346,17.081 27.762,15.893 25.209,15.893 L21.732,15.893 L21.732,23.813 L25.142,23.813 C27.684,23.812 29.346,22.668 29.346,19.688 Z M24.328,21.964 L24.328,17.739 L24.824,17.739 C26.21,17.739 26.749,18.179 26.749,19.829 C26.749,21.325 26.089,21.963 24.879,21.963 L24.328,21.964 Z" id="Shape" fill-rule="nonzero"></path>
        </g>
    </g>
</svg>