<svg height="512pt" viewBox="0 -6 512 512" width="512pt" xmlns="http://www.w3.org/2000/svg"><path d="m477.523438 124.734375v332.96875h-443.039063v-332.96875c0-29.265625 23.730469-52.996094 52.996094-52.996094h337.035156c29.277344 0 53.007813 23.730469 53.007813 52.996094zm0 0" fill="#e6e6e6"/><path d="m34.484375 402.324219h443.039063v65.828125h-443.039063zm0 0" fill="#ccc"/><path d="m470.203125 416.550781h-428.40625c-23.082031 0-41.796875 18.714844-41.796875 41.796875 0 23.082032 18.714844 41.796875 41.796875 41.796875h428.40625c23.082031 0 41.796875-18.714843 41.796875-41.796875 0-23.082031-18.714844-41.796875-41.796875-41.796875zm0 0" fill="#e6e6e6"/><path d="m506.410156 479.246094c-7.230468 12.496094-20.742187 20.898437-36.207031 20.898437h-428.40625c-11.535156 0-21.984375-4.683593-29.550781-12.246093-7.566406-7.566407-12.246094-18.015626-12.246094-29.550782 0-23.082031 18.714844-41.796875 41.796875-41.796875h.269531c-3.550781 6.15625-5.589844 13.292969-5.589844 20.898438 0 11.535156 4.683594 21.984375 12.246094 29.550781 7.554688 7.5625 18.003906 12.246094 29.550782 12.246094zm0 0" fill="#ccc"/><path d="m446.175781 345.105469v-220.375c0-11.957031-9.695312-21.648438-21.652343-21.648438h-337.042969c-11.957031 0-21.648438 9.691407-21.648438 21.648438v220.375c0 16.375 13.273438 29.648437 29.648438 29.648437h321.046875c16.371094 0 29.648437-13.273437 29.648437-29.648437zm0 0" fill="#75b2cc"/><path d="m416.527344 382.59375h-321.046875c-20.667969 0-37.484375-16.816406-37.484375-37.488281v-220.371094c0-16.261719 13.226562-29.488281 29.488281-29.488281h337.039063c16.261718 0 29.488281 13.226562 29.488281 29.488281v220.371094c0 20.671875-16.816407 37.488281-37.484375 37.488281zm-329.042969-271.675781c-7.617187 0-13.816406 6.199219-13.816406 13.816406v220.371094c0 12.03125 9.785156 21.8125 21.8125 21.8125h321.046875c12.027344 0 21.808594-9.78125 21.808594-21.8125v-220.375c0-7.617188-6.195313-13.8125-13.8125-13.8125zm0 0" fill="#ccc"/><path d="m318.5625 458.347656h-125.125c-20.847656 0-37.746094-16.902344-37.746094-37.746094v-4.050781h200.617188v4.050781c0 20.847657-16.898438 37.746094-37.746094 37.746094zm0 0" fill="#ccc"/><path d="m383.375 123.683594c-3.523438-164.910156-251.210938-164.910156-254.734375 0-.039063 1.800781-.058594 3.605468-.058594 5.414062 0 93.285156 51.40625 174.554688 127.425781 217.0625 76.019532-42.507812 127.421876-123.777344 127.421876-217.0625 0-1.808594-.019532-3.613281-.054688-5.414062zm0 0" fill="#e55c5c"/><path d="m256.003906 346.160156c-76.019531-42.507812-127.429687-123.777344-127.429687-217.066406 0-1.808594.023437-3.609375.058593-5.410156 1.75-81.976563 63.835938-123.199219 126.265626-123.6757815-46.726563.6406255-93.089844 41.8632815-94.402344 123.6757815-.03125 1.800781-.050782 3.605468-.050782 5.414062 0 93.285156 38.550782 174.554688 95.558594 217.0625zm0 0" fill="#ce4141"/><path d="m256.375 215.636719c-20.25 0-38.867188-6.992188-53.566406-18.6875-10.382813-8.261719-18.808594-18.867188-24.484375-31.023438-2.757813-5.90625-4.863281-12.183593-6.230469-18.738281 0-.007812 0-.007812 0-.007812-1.1875-5.6875-1.8125-11.585938-1.8125-17.628907 0-47.539062 38.546875-86.085937 86.09375-86.085937 25.519531 0 48.453125 11.109375 64.214844 28.761718 2.964844 3.3125 5.675781 6.859376 8.105468 10.613282 8.707032 13.449218 13.765626 29.488281 13.765626 46.710937 0 .753907-.007813 1.511719-.027344 2.257813-1.203125 46.503906-39.273438 83.828125-86.058594 83.828125zm0 0" fill="#e6e6e6"/><path d="m256.375 215.636719c-20.25 0-38.867188-6.992188-53.566406-18.6875-10.382813-8.261719-18.808594-18.867188-24.484375-31.023438-2.757813-5.90625-4.863281-12.1875-6.230469-18.738281 0-.007812 0-.007812 0-.007812-1.1875-5.6875-1.8125-11.585938-1.8125-17.628907 0-47.539062 38.546875-86.085937 86.09375-86.085937 4.570312 0 9.058594.355468 13.441406 1.042968-41.171875 6.445313-72.667968 42.0625-72.667968 85.042969 0 6.042969.625 11.9375 1.8125 17.628907v.007812c1.363281 6.550781 3.46875 12.832031 6.230468 18.738281 5.671875 12.152344 14.101563 22.761719 24.480469 31.023438 11.386719 9.050781 25.109375 15.289062 40.132813 17.636719-4.378907.695312-8.859376 1.050781-13.429688 1.050781zm0 0" fill="#ccc"/><g fill="#24465e"><path d="m295.300781 121.53125c-2.996093-2.371094-7.207031-3.574219-12.511719-3.574219-14.578124 0-17.636718 8.640625-17.636718 15.886719v16.574219c0 7.246093 3.058594 15.886719 17.636718 15.886719 5.304688 0 9.515626-1.203126 12.511719-3.574219 3.402344-2.695313 5.125-6.835938 5.125-12.3125v-16.574219c0-5.480469-1.726562-9.621094-5.125-12.3125zm-6.808593 28.882812c0 3.582032-1.972657 5.472657-5.703126 5.472657-3.707031 0-5.589843-1.839844-5.589843-5.472657v-16.570312c0-3.632812 1.882812-5.472656 5.589843-5.472656 3.730469 0 5.703126 1.890625 5.703126 5.472656zm0 0"/><path d="m246.855469 112.835938v-16.574219c0-5.476563-1.722657-9.621094-5.125-12.3125-2.996094-2.371094-7.207031-3.574219-12.511719-3.574219-14.578125 0-17.636719 8.640625-17.636719 15.886719v16.574219c0 7.246093 3.058594 15.886718 17.636719 15.886718 5.304688 0 9.515625-1.203125 12.511719-3.574218 3.402343-2.691407 5.125-6.835938 5.125-12.3125zm-11.933594 0c0 3.578124-1.972656 5.472656-5.703125 5.472656-3.707031 0-5.589844-1.84375-5.589844-5.472656v-16.574219c0-3.628907 1.882813-5.46875 5.589844-5.46875 3.730469 0 5.703125 1.890625 5.703125 5.46875zm0 0"/><path d="m283.035156 81.90625c0-3.777344-3.628906-6.316406-7.015625-6.316406-2.296875 0-4.125 1.09375-5.019531 2.992187l-40.964844 84.144531c-.378906.761719-.597656 1.589844-.597656 2.277344 0 3.050782 2.679688 6.316406 6.667969 6.316406 2.339843 0 4.546875-1.230468 5.367187-2.992187l41.082032-84.144531c.398437-.792969.480468-1.675782.480468-2.277344zm0 0"/></g></svg>