<svg height="512pt" viewBox="0 0 512 512" width="512pt" xmlns="http://www.w3.org/2000/svg"><path d="m0 0h512v512h-512z" fill="#f0e7df"/><path d="m256 0h256v512h-256zm0 0" fill="#dfcdbd"/><path d="m43 66h155.332031v103.496094h-155.332031zm0 0" fill="#ff633d"/><path d="m165.5 209h33.167969v30h-33.167969zm0 0" fill="#ff8900"/><path d="m42.417969 209h103.75v30h-103.75zm0 0" fill="#ffaa20"/><path d="m165.5 278.332031h33.167969v30h-33.167969zm0 0" fill="#ff8900"/><path d="m42.417969 278.332031h103.75v30h-103.75zm0 0" fill="#ffaa20"/><path d="m165.5 347.667969h33.167969v30h-33.167969zm0 0" fill="#ff8900"/><path d="m42.417969 347.667969h103.75v30h-103.75zm0 0" fill="#ffaa20"/><path d="m165.5 417h33.167969v30h-33.167969zm0 0" fill="#ff8900"/><path d="m42.417969 417h103.75v30h-103.75zm0 0" fill="#ffaa20"/><path d="m314.917969 343.503906h155.332031v103.496094h-155.332031zm0 0" fill="#e70021"/><path d="m437.417969 274h33.167969v30h-33.167969zm0 0" fill="#e67500"/><path d="m314.332031 274h103.75v30h-103.75zm0 0" fill="#ff8900"/><path d="m437.417969 204.667969h33.167969v30h-33.167969zm0 0" fill="#e67500"/><path d="m314.332031 204.667969h103.75v30h-103.75zm0 0" fill="#ff8900"/><path d="m437.417969 135.332031h33.167969v30h-33.167969zm0 0" fill="#e67500"/><path d="m314.332031 135.332031h103.75v30h-103.75zm0 0" fill="#ff8900"/><path d="m437.417969 66h33.167969v30h-33.167969zm0 0" fill="#e67500"/><path d="m314.332031 66h103.75v30h-103.75zm0 0" fill="#ff8900"/></svg>