<svg height="512pt" viewBox="0 0 512 512" width="512pt" xmlns="http://www.w3.org/2000/svg"><path d="m512 256c0 141.386719-114.613281 256-256 256s-256-114.613281-256-256 114.613281-256 256-256 256 114.613281 256 256zm0 0" fill="#75ccd4"/><path d="m1.304688 282h45.695312c8.285156 0 15-6.714844 15-15s-6.714844-15-15-15h-46.9492188c-.0195312 1.332031-.0507812 2.664062-.0507812 4 0 8.777344.445312 17.449219 1.304688 26zm282.09375-199.601562h160.726562c-10.085938-10.921876-21.109375-20.964844-32.945312-30h-127.78125c-8.28125 0-15 6.71875-15 15 0 8.285156 6.71875 15 15 15zm85 105c0 8.285156-6.714844 15-15 15h-78.144532c-8.078125 0-15.027344 6.207031-15.40625 14.277343-.40625 8.613281 6.457032 15.722657 14.980469 15.722657h168.570313c8.285156 0 15-6.714844 15-15 0-8.28125 6.71875-15 15-15h32.964843c-2.183593-10.238282-4.972656-20.25-8.339843-30h-114.625c-8.28125 0-15 6.71875-15 15zm-240-35c4.144531 0 7.5 3.359374 7.5 7.5 0 4.144531-3.355469 7.5-7.5 7.5h-33.570313c-8.285156 0-15 6.71875-15 15 0 8.285156 6.714844 15 15 15h98.570313c8.285156 0 15-6.714844 15-15 0-8.28125-6.714844-15-15-15h-35c-4.140626 0-7.5-3.355469-7.5-7.5 0-4.140626 3.359374-7.5 7.5-7.5h6.429687c8.285156 0 15-6.714844 15-15 0-8.28125-6.714844-15-15-15h-127.234375c-5.867188 9.578124-11.121094 19.570312-15.714844 29.925781.5.046875 1.007813.074219 1.519532.074219zm90-105c0-8.28125-6.714844-15-15-15h-72.109376c-15.296874 8.550781-29.636718 18.609374-42.792968 30h114.902344c8.285156 0 15-6.714844 15-15zm26.429687 105h98.570313c8.285156 0 15-6.714844 15-15 0-8.28125-6.714844-15-15-15h-98.570313c-8.28125 0-15 6.71875-15 15 0 8.285156 6.714844 15 15 15zm101.601563 137.601562h98.570312c8.285156 0 15-6.714844 15-15s-6.714844-15-15-15h-98.570312c-8.285157 0-15 6.714844-15 15s6.714843 15 15 15zm0 0" fill="#a7dde2"/><path d="m46.808594 403.554688c-15.671875-22.175782-27.910156-46.949219-35.929688-73.554688h425.082032l4.488281-19.59375 16.710937 17.054688 16.230469-17.460938 5.140625 20h22.59375c-8.273438 27.4375-21.027344 52.925781-37.410156 75.628906-1.980469 2.746094-5.167969 4.371094-8.554688 4.371094h-395.980468c-4.929688 0-9.527344-2.417969-12.371094-6.445312zm0 0" fill="#0cc33c"/><path d="m460.503906 410c-46.722656 61.949219-120.933594 102-204.503906 102-69.574219 0-132.660156-27.757812-178.800781-72.800781-10.921875-10.664063-3.402344-29.199219 11.859375-29.199219zm0 0" fill="#495959"/><path d="m467.675781 400c-4.714843 6.917969-9.761719 13.589844-15.113281 20h-100.0625v-20h47.5v-230h20v230zm0 0" fill="#3f4a4a"/><path d="m500 90c0 49.707031-40.292969 90-90 90s-90-40.292969-90-90 40.292969-90 90-90 90 40.292969 90 90zm0 0" fill="#fcb30b"/><path d="m384.609375 176.363281c-37.339844-10.960937-64.609375-45.476562-64.609375-86.363281s27.269531-75.402344 64.609375-86.363281c-26.683594 17.351562-44.609375 49.53125-44.609375 86.363281s17.925781 69.011719 44.609375 86.363281zm0 0" fill="#fc9302"/><path d="m475 90c0 35.898438-29.101562 65-65 65s-65-29.101562-65-65 29.101562-65 65-65 65 29.101562 65 65zm0 0" fill="#d73131"/><path d="m404.339844 58.09375v5.589844c0 9.03125-5.152344 16.855468-12.679688 20.703125v68.039062c-7.742187-2.269531-14.882812-5.933593-21.132812-10.710937v-57.328125c-7.523438-3.847657-12.679688-11.671875-12.679688-20.703125v-5.589844c0-1.902344.234375-3.792969.695313-5.640625l2.421875-9.679687c2.308594-9.238282 10.609375-15.71875 20.128906-15.71875 9.523438 0 17.824219 6.480468 20.132812 15.71875l2.421876 9.679687c.460937 1.84375.691406 3.738281.691406 5.640625zm0 0" fill="#b4d2d7"/><path d="m462.070312 32.441406v31.347656c0 9.035157-5.15625 16.859376-12.679687 20.707032v57.21875c-6.25 4.777344-13.394531 8.441406-21.132813 10.707031v-67.925781c-7.527343-3.847656-12.679687-11.671875-12.679687-20.707032v-31.347656c0-.972656.785156-1.757812 1.761719-1.757812 5.25 0 9.507812 4.257812 9.507812 9.507812v19.019532c0 1.753906 1.417969 3.171874 3.171875 3.171874 1.75 0 3.167969-1.417968 3.167969-3.171874v-19.460938c0-3.449219 1.777344-6.65625 4.703125-8.484375.574219-.359375 1.292969-.359375 1.867187 0 2.925782 1.828125 4.703126 5.035156 4.703126 8.484375v19.460938c0 1.753906 1.417968 3.171874 3.167968 3.171874s3.171875-1.417968 3.171875-3.171874v-19.019532c0-5.25 4.257813-9.507812 9.507813-9.507812.972656 0 1.761718.785156 1.761718 1.757812zm-60.84375 10.328125c-2.308593-9.238281-10.609374-15.714843-20.132812-15.714843-.597656 0-1.191406.023437-1.78125.074218-7.191406 4.234375-12.132812 12.976563-12.132812 23.082032 0 14.25 9.816406 25.800781 21.925781 25.800781 5.550781 0 10.617187-2.433594 14.480469-6.433594.488281-1.882813.753906-3.855469.753906-5.894531v-5.59375c0-1.898438-.234375-3.792969-.695313-5.636719zm-14.46875 52.417969c-2.726562 0-4.941406 2.210938-4.941406 4.941406v48.53125c3.148438 1.515625 6.441406 2.769532 9.84375 3.765625v-52.890625c-.292968-2.449218-2.375-4.347656-4.902344-4.347656zm0 0" fill="#e1ebf0"/><path d="m439.507812 84.878906v63.011719c-3.574218 1.824219-7.332031 3.332031-11.25 4.480469v-67.929688c-7.527343-3.847656-12.683593-11.671875-12.683593-20.703125v-31.347656c0-.972656.789062-1.761719 1.761719-1.761719 5.058593 0 9.191406 3.945313 9.492187 8.929688v16.429687s.007813 2.027344.019531 2.332031c0 0 .046875 1.464844.136719 1.753907.683594 5.960937 3.625 11.238281 7.945313 14.953125 2.878906 2.476562 4.578124 6.050781 4.578124 9.851562zm0 0" fill="#b4d2d7"/><path d="m46 220h320v200h-306.5625c-4.722656-5.65625-9.207031-11.523438-13.4375-17.578125zm0 0" fill="#fbc56d"/><path d="m382 415v20c0 2.761719-2.238281 5-5 5h-298.96875c-9.597656-9.289062-18.476562-19.316406-26.535156-30h.007812c-.003906-.003906-.007812-.007812-.011718-.011719-1.875-2.488281-3.707032-5.011719-5.492188-7.566406v-182.421875h30v180c0 5.523438 4.476562 10 10 10h291c2.761719 0 5 2.238281 5 5zm0 0" fill="#ebae56"/><path d="m342 305v70c0 2.761719-2.238281 5-5 5h-42c-2.761719 0-5-2.238281-5-5v-70c0-2.761719 2.238281-5 5-5h42c2.761719 0 5 2.238281 5 5zm-225-5h-42c-2.761719 0-5 2.238281-5 5v70c0 2.761719 2.238281 5 5 5h42c2.761719 0 5-2.238281 5-5v-70c0-2.761719-2.238281-5-5-5zm150 0h-122c-2.761719 0-5 2.238281-5 5v105h132v-105c0-2.761719-2.238281-5-5-5zm0 0" fill="#016a74"/><path d="m342 305v70c0 2.761719-2.238281 5-5 5h-22c-2.761719 0-5-2.238281-5-5v-70c0-2.761719 2.238281-5 5-5h22c2.761719 0 5 2.238281 5 5zm-75-5h-56v60h10c2.761719 0 5 2.238281 5 5s-2.238281 5-5 5h-10v40h61v-105c0-2.761719-2.238281-5-5-5zm-150 0h-22c-2.761719 0-5 2.238281-5 5v70c0 2.761719 2.238281 5 5 5h22c2.761719 0 5-2.238281 5-5v-70c0-2.761719-2.238281-5-5-5zm43 5v105h41v-40h-10c-2.761719 0-5-2.238281-5-5s2.238281-5 5-5h10v-60h-36c-2.761719 0-5 2.238281-5 5zm0 0" fill="#00808a"/><path d="m68.722656 240.097656v9.804688c0 10.832031-8.78125 19.613281-19.613281 19.613281-10.828125 0-19.609375-8.78125-19.609375-19.613281v-9.804688c0-10.832031 8.78125-19.613281 19.609375-19.613281 10.832031 0 19.613281 8.78125 19.613281 19.613281zm58.832032-19.613281c-10.828126 0-19.609376 8.78125-19.609376 19.613281v9.804688c0 10.832031 8.78125 19.613281 19.609376 19.613281 10.832031 0 19.613281-8.78125 19.613281-19.613281v-9.804688c0-10.832031-8.78125-19.613281-19.613281-19.613281zm78.445312 0c-10.832031 0-19.609375 8.78125-19.609375 19.613281v9.804688c0 10.832031 8.777344 19.613281 19.609375 19.613281s19.609375-8.78125 19.609375-19.613281v-9.804688c0-10.832031-8.777344-19.613281-19.609375-19.613281zm78.445312 0c-10.832031 0-19.609374 8.78125-19.609374 19.613281v9.804688c0 10.832031 8.777343 19.613281 19.609374 19.613281 10.832032 0 19.609376-8.78125 19.609376-19.613281v-9.804688c0-10.832031-8.78125-19.613281-19.609376-19.613281zm78.445313 0c-10.832031 0-19.613281 8.78125-19.613281 19.613281v9.804688c0 10.832031 8.78125 19.613281 19.613281 19.613281 10.828125 0 19.609375-8.78125 19.609375-19.613281v-9.804688c0-10.832031-8.78125-19.613281-19.609375-19.613281zm0 0" fill="#fc9368"/><path d="m107.945312 240.097656v9.804688c0 10.832031-8.78125 19.613281-19.609374 19.613281-10.832032 0-19.613282-8.78125-19.613282-19.613281v-9.804688c0-10.832031 8.78125-19.613281 19.613282-19.613281 10.828124 0 19.609374 8.78125 19.609374 19.613281zm58.832032-19.613281c-10.832032 0-19.609375 8.78125-19.609375 19.613281v9.804688c0 10.832031 8.777343 19.613281 19.609375 19.613281 10.832031 0 19.613281-8.78125 19.613281-19.613281v-9.804688c0-10.832031-8.78125-19.613281-19.613281-19.613281zm78.445312 0c-10.832031 0-19.613281 8.78125-19.613281 19.613281v9.804688c0 10.832031 8.78125 19.613281 19.613281 19.613281 10.832032 0 19.609375-8.78125 19.609375-19.613281v-9.804688c0-10.832031-8.777343-19.613281-19.609375-19.613281zm78.445313 0c-10.832031 0-19.613281 8.78125-19.613281 19.613281v9.804688c0 10.832031 8.78125 19.613281 19.613281 19.613281 10.828125 0 19.609375-8.78125 19.609375-19.613281v-9.804688c0-10.832031-8.78125-19.613281-19.609375-19.613281zm0 0" fill="#fff2b4"/><path d="m387 215v20c0 2.761719-2.238281 5-5 5h-337c-2.761719 0-5-2.238281-5-5v-20c0-2.761719 2.238281-5 5-5h27.757812l43.226563-97.035156c.800781-1.804688 2.589844-2.964844 4.566406-2.964844h170.898438c1.972656 0 3.761719 1.160156 4.566406 2.964844l43.226563 97.035156h42.757812c2.761719 0 5 2.238281 5 5zm0 0" fill="#e84444"/><path d="m250 210h-177.242188l43.226563-97.035156c.800781-1.804688 2.589844-2.964844 4.566406-2.964844h29c-1.976562 0-3.765625 1.160156-4.566406 2.964844l-28.050781 62.964844c-2.945313 6.617187 1.894531 14.070312 9.136718 14.070312h123.585938c5.328125 0 9.976562 4.019531 10.320312 9.335938.378907 5.824218-4.234374 10.664062-9.976562 10.664062zm-200 25v-20c0-2.761719 2.238281-5 5-5h-25c-2.761719 0-5 2.238281-5 5v20c0 2.761719 2.238281 5 5 5h25c-2.761719 0-5-2.238281-5-5zm0 0" fill="#d73131"/></svg>